<svg width="67" height="67" viewBox="0 0 67 67" fill="none" xmlns="http://www.w3.org/2000/svg">
<g clip-path="url(#clip0)">
<path d="M29.5363 14.0113L26.2421 16.9158C25.3329 17.718 25.2474 19.1038 26.0451 20.0174L33.6348 28.6481L2.24897 28.7021C1.03489 28.7042 0.0512394 29.6912 0.0533283 30.9053L0.0608968 35.3042C0.0629857 36.5182 1.05003 37.5019 2.26411 37.4998L33.65 37.4458L26.09 46.1026C25.2954 47.0145 25.3857 48.4 26.2977 49.2034L29.5974 52.0966C30.5138 52.9 31.908 52.8053 32.7071 51.8889L47.9016 34.4696C48.626 33.637 48.6238 32.4009 47.8966 31.5708L32.6422 14.2083C31.8401 13.2947 30.4455 13.2047 29.5363 14.0113Z" fill="#3EEB98"/>
<path d="M57.2006 8.81293L57.2838 57.2004C57.2859 58.4144 58.2729 59.3981 59.487 59.396L63.8859 59.3884C65.1 59.3863 66.0836 58.3993 66.0815 57.1852L65.9983 8.7978C65.9962 7.58371 65.0091 6.60006 63.7951 6.60215L59.3962 6.60972C58.1821 6.61181 57.1985 7.59885 57.2006 8.81293Z" fill="#3EEB98"/>
</g>
<defs>
<clipPath id="clip0">
<rect width="65.9829" height="65.9829" fill="white" transform="translate(0.11377 66.0964) rotate(-90.0986)"/>
</clipPath>
</defs>
</svg>
