<svg width="60" height="60" viewBox="0 0 60 60" fill="none" xmlns="http://www.w3.org/2000/svg">
<g clip-path="url(#clip0)">
<path d="M50.7585 7.86426L23.5891 35.0336C22.8568 35.7659 21.6695 35.7659 20.9372 35.0336L9.24152 23.3379L0 32.5795L17.6422 50.2219C18.8678 51.4475 20.53 52.1359 22.263 52.1359C23.996 52.1359 25.6583 51.4473 26.8838 50.2219L60 17.1057L50.7585 7.86426Z" fill="#A5EB78"/>
<g opacity="0.1">
<path opacity="0.1" d="M56.9439 14.0493L21.9832 49.0101C21.0159 49.9772 19.7996 50.6369 18.4855 50.9309C19.5827 51.7085 20.9005 52.1356 22.263 52.1356C23.996 52.1356 25.6583 51.447 26.8837 50.2216L60 17.1053L56.9439 14.0493Z" fill="black"/>
</g>
</g>
<defs>
<clipPath id="clip0">
<rect width="60" height="60" fill="white"/>
</clipPath>
</defs>
</svg>
