<svg width="60" height="60" viewBox="0 0 60 60" fill="none" xmlns="http://www.w3.org/2000/svg">
<g clip-path="url(#clip0)">
<path d="M58.4615 48.5602L11.4394 1.53807C9.38866 -0.512691 6.06385 -0.512691 4.01629 1.53807L1.53807 4.01245C-0.512691 6.06386 -0.512691 9.38866 1.53807 11.4362L48.5602 58.4584C50.6116 60.5091 53.9364 60.5091 55.9839 58.4584L58.4583 55.984C60.5129 53.9364 60.5129 50.611 58.4615 48.5602Z" fill="#F44336"/>
<path d="M48.5601 1.53759L1.53807 48.5597C-0.512691 50.6105 -0.512691 53.9359 1.53807 55.9835L4.01244 58.4579C6.06385 60.5086 9.38865 60.5086 11.4362 58.4579L34.9488 34.9484L58.4615 11.4389C60.5129 9.38818 60.5129 6.06338 58.4615 4.01581L55.9871 1.54144C53.9363 -0.513171 50.6115 -0.513172 48.5601 1.53759Z" fill="#F44336"/>
</g>
<defs>
<clipPath id="clip0">
<rect width="60" height="60" fill="white"/>
</clipPath>
</defs>
</svg>
