<svg width="42" height="42" viewBox="0 0 42 42" fill="none" xmlns="http://www.w3.org/2000/svg">
<g clip-path="url(#clip0)">
<path d="M20.7007 20.2315C23.4802 20.2315 25.8869 19.2346 27.8535 17.2678C29.82 15.3013 30.8168 12.8952 30.8168 10.1154C30.8168 7.33664 29.82 4.93019 27.8531 2.96305C25.8863 0.996868 23.4798 0 20.7007 0C17.9209 0 15.5148 0.996868 13.5483 2.96337C11.5818 4.92987 10.5846 7.33632 10.5846 10.1154C10.5846 12.8952 11.5818 15.3017 13.5486 17.2682C15.5154 19.2343 17.9219 20.2315 20.7007 20.2315Z" fill="#B8B8B8"/>
<path d="M38.4012 32.2958C38.3445 31.4774 38.2298 30.5847 38.0609 29.642C37.8904 28.6922 37.6709 27.7944 37.4082 26.9738C37.1368 26.1256 36.7676 25.288 36.3113 24.4853C35.8377 23.6521 35.2814 22.9267 34.6572 22.3297C34.0045 21.7052 33.2054 21.2031 32.2812 20.8368C31.3603 20.4725 30.3397 20.2879 29.248 20.2879C28.8192 20.2879 28.4046 20.4638 27.6038 20.9852C27.111 21.3066 26.5345 21.6783 25.8911 22.0894C25.3409 22.4399 24.5956 22.7684 23.675 23.0658C22.7768 23.3564 21.8649 23.5038 20.9648 23.5038C20.0647 23.5038 19.153 23.3564 18.2539 23.0658C17.3342 22.7687 16.5889 22.4403 16.0394 22.0897C15.402 21.6824 14.8252 21.3107 14.325 20.9849C13.5252 20.4635 13.1103 20.2876 12.6815 20.2876C11.5895 20.2876 10.5692 20.4725 9.64861 20.8371C8.72511 21.2028 7.92563 21.7049 7.27226 22.33C6.64838 22.9273 6.09178 23.6525 5.61882 24.4853C5.16284 25.288 4.7937 26.1253 4.52197 26.9741C4.25954 27.7947 4.04004 28.6922 3.86957 29.642C3.7007 30.5834 3.58598 31.4765 3.52927 32.2968C3.47351 33.1004 3.44531 33.9345 3.44531 34.777C3.44531 36.9694 4.14226 38.7442 5.5166 40.0532C6.87396 41.3449 8.67 42.0002 10.8541 42.0002H31.0773C33.2614 42.0002 35.0568 41.3452 36.4145 40.0532C37.7892 38.7452 38.4861 36.97 38.4861 34.7766C38.4858 33.9304 38.4573 33.0956 38.4012 32.2958Z" fill="#B8B8B8"/>
<g clip-path="url(#clip1)">
<path d="M20.7007 20.2315C23.4802 20.2315 25.8869 19.2346 27.8535 17.2678C29.82 15.3013 30.8168 12.8952 30.8168 10.1154C30.8168 7.33664 29.82 4.93019 27.8531 2.96305C25.8863 0.996868 23.4798 0 20.7007 0C17.9209 0 15.5148 0.996868 13.5483 2.96337C11.5818 4.92987 10.5846 7.33632 10.5846 10.1154C10.5846 12.8952 11.5818 15.3017 13.5486 17.2682C15.5154 19.2343 17.9219 20.2315 20.7007 20.2315Z" fill="#B8B8B8"/>
<path d="M38.4012 32.2958C38.3445 31.4774 38.2298 30.5847 38.0609 29.642C37.8904 28.6922 37.6709 27.7944 37.4082 26.9738C37.1368 26.1256 36.7676 25.288 36.3113 24.4853C35.8377 23.6521 35.2814 22.9267 34.6572 22.3297C34.0045 21.7052 33.2054 21.2031 32.2812 20.8368C31.3603 20.4725 30.3397 20.2879 29.248 20.2879C28.8192 20.2879 28.4046 20.4638 27.6038 20.9852C27.111 21.3066 26.5345 21.6783 25.8911 22.0894C25.3409 22.4399 24.5956 22.7684 23.675 23.0658C22.7768 23.3564 21.8649 23.5038 20.9648 23.5038C20.0647 23.5038 19.153 23.3564 18.2539 23.0658C17.3342 22.7687 16.5889 22.4403 16.0394 22.0897C15.402 21.6824 14.8252 21.3107 14.325 20.9849C13.5252 20.4635 13.1103 20.2876 12.6815 20.2876C11.5895 20.2876 10.5692 20.4725 9.64861 20.8371C8.72511 21.2028 7.92563 21.7049 7.27226 22.33C6.64838 22.9273 6.09178 23.6525 5.61882 24.4853C5.16284 25.288 4.7937 26.1253 4.52197 26.9741C4.25954 27.7947 4.04004 28.6922 3.86957 29.642C3.7007 30.5834 3.58598 31.4765 3.52927 32.2968C3.47351 33.1004 3.44531 33.9345 3.44531 34.777C3.44531 36.9694 4.14226 38.7442 5.5166 40.0532C6.87396 41.3449 8.67 42.0002 10.8541 42.0002H31.0773C33.2614 42.0002 35.0568 41.3452 36.4145 40.0532C37.7892 38.7452 38.4861 36.97 38.4861 34.7766C38.4858 33.9304 38.4573 33.0956 38.4012 32.2958Z" fill="#B8B8B8"/>
</g>
</g>
<defs>
<clipPath id="clip0">
<rect width="42" height="42" fill="white"/>
</clipPath>
<clipPath id="clip1">
<rect width="42" height="42" fill="white"/>
</clipPath>
</defs>
</svg>
